<?xml version="1.0" encoding="UTF-8" standalone="no"?>
<!-- Generator: Adobe Illustrator 14.0.0, SVG Export Plug-In . SVG Version: 6.00 Build 43363)  -->

<svg
   xmlns:dc="http://purl.org/dc/elements/1.1/"
   xmlns:cc="http://creativecommons.org/ns#"
   xmlns:rdf="http://www.w3.org/1999/02/22-rdf-syntax-ns#"
   xmlns:svg="http://www.w3.org/2000/svg"
   xmlns="http://www.w3.org/2000/svg"
   xmlns:sodipodi="http://sodipodi.sourceforge.net/DTD/sodipodi-0.dtd"
   xmlns:inkscape="http://www.inkscape.org/namespaces/inkscape"
   version="1.1"
   id="Layer_1"
   x="0px"
   y="0px"
   width="54px"
   height="36px"
   viewBox="0 0 54 36"
   enable-background="new 0 0 54 36"
   xml:space="preserve"
   inkscape:version="0.48.5 r10040"
   sodipodi:docname="motion.svg"><metadata
     id="metadata25"><rdf:RDF><cc:Work
         rdf:about=""><dc:format>image/svg+xml</dc:format><dc:type
           rdf:resource="http://purl.org/dc/dcmitype/StillImage" /><dc:title></dc:title></cc:Work></rdf:RDF></metadata><defs
     id="defs23" /><sodipodi:namedview
     pagecolor="#ffffff"
     bordercolor="#666666"
     borderopacity="1"
     objecttolerance="10"
     gridtolerance="10"
     guidetolerance="10"
     inkscape:pageopacity="0"
     inkscape:pageshadow="2"
     inkscape:window-width="956"
     inkscape:window-height="1018"
     id="namedview21"
     showgrid="false"
     showguides="true"
     inkscape:guide-bbox="true"
     inkscape:zoom="4.4259647"
     inkscape:cx="13.174675"
     inkscape:cy="32.810501"
     inkscape:window-x="2160"
     inkscape:window-y="420"
     inkscape:window-maximized="0"
     inkscape:current-layer="Layer_1" /><path
     transform="matrix(1.9783259,0,0,1.9783259,-43.340721,61.870404)"
     d="m 46.995404,-62.792023 a 4.123395,4.123395 0 1 1 -8.24679,0 4.123395,4.123395 0 1 1 8.24679,0 z"
     sodipodi:ry="4.123395"
     sodipodi:rx="4.123395"
     sodipodi:cy="-62.792023"
     sodipodi:cx="42.872009"
     id="path3803"
     style="fill:#009344;fill-opacity:1;stroke:none"
     sodipodi:type="arc"
     inkscape:export-filename="/home/kgillespie/air_projects/air_everywhere/air_element_libraries/lis3dh/element_code/zRawAcceleration.designer.png"
     inkscape:export-xdpi="187.09"
     inkscape:export-ydpi="187.09" /><path
     style="fill:#009344;fill-opacity:1"
     d="m 37.36446,-25.65625 0,7.152922 5.948212,0 0,-7.152922 -5.948212,0 z"
     id="polygon3794"
     inkscape:connector-curvature="0" /><path
     fill="#009344"
     d="M48.335,3.931H6.744c-1.798,0-3.257,1.457-3.257,3.256v22.776c0,1.797,1.458,3.256,3.257,3.256h41.591  c1.798,0,3.257-1.459,3.257-3.256V7.187C51.592,5.388,50.133,3.931,48.335,3.931z M49.36,28.971c0,1.15-0.934,2.084-2.083,2.084  H7.63c-1.15,0-2.083-0.934-2.083-2.084v-8.184c0-1.15,0.932-2.082,2.083-2.082h26.43l4.216,4.213l4.214-4.213h4.787  c1.149,0,2.083,0.931,2.083,2.082V28.971z"
     id="path17"
     inkscape:export-filename="/home/kgillespie/air_projects/air_everywhere/air_element_libraries/lis3dh/element_code/xRawAcceleration.icon.png"
     inkscape:export-xdpi="187.09"
     inkscape:export-ydpi="187.09" /><polygon
     points="38.275,6.268 36.297,8.247 40.116,12.064 28.761,12.064 28.761,14.862 40.116,14.862 36.297,18.681   38.275,20.658 45.473,13.463 "
     id="polygon19"
     fill="#FFFFFF" /><path
     id="path3774"
     d="m 48.335,-37.926988 -41.591,0 c -1.798,0 -3.257,1.457 -3.257,3.256 l 0,22.776 c 0,1.797 1.458,3.2559998 3.257,3.2559998 l 41.591,0 c 1.798,0 3.257,-1.4589998 3.257,-3.2559998 l 0,-22.776 c 0,-1.799 -1.459,-3.256 -3.257,-3.256 z m 1.025,25.04 c 0,1.15 -0.934,2.084 -2.083,2.084 l -39.647,0 c -1.15,0 -2.083,-0.934 -2.083,-2.084 l 0,-8.184 c 0,-1.15 0.932,-2.082 2.083,-2.082 l 26.43,0 4.216,-0.02073 4.214,0.02073 4.787,0 c 1.149,0 2.083,0.931 2.083,2.082 z"
     inkscape:connector-curvature="0"
     style="fill:#009344"
     sodipodi:nodetypes="ssssssssssssssscccsss"
     inkscape:export-filename="/home/kgillespie/air_projects/air_everywhere/air_element_libraries/lis3dh/element_code/yRawAcceleration.designer.png"
     inkscape:export-xdpi="187.09"
     inkscape:export-ydpi="187.09" /><polygon
     id="polygon3776"
     points="38.275,20.658 45.473,13.463 38.275,6.268 36.297,8.247 40.116,12.064 28.761,12.064 28.761,14.862 40.116,14.862 36.297,18.681 "
     transform="matrix(0,-1,1,0,26.875566,8.6638644)"
     style="fill:#ffffff"
     inkscape:transform-center-x="1.4686064"
     inkscape:transform-center-y="0.56484861" /><path
     sodipodi:nodetypes="ssssssssssssssscccsss"
     style="fill:#009344"
     inkscape:connector-curvature="0"
     d="m 48.335,-72.834632 -41.591,0 c -1.798,0 -3.257,1.457 -3.257,3.256 l 0,22.776 c 0,1.797 1.458,3.256 3.257,3.256 l 41.591,0 c 1.798,0 3.257,-1.459 3.257,-3.256 l 0,-22.776 c 0,-1.799 -1.459,-3.256 -3.257,-3.256 z m 1.025,25.04 c 0,1.15 -0.934,2.084 -2.083,2.084 l -39.647,0 c -1.15,0 -2.083,-0.934 -2.083,-2.084 l 0,-8.184 c 0,-1.15 0.932,-2.082 2.083,-2.082 l 26.43,0 4.216,-0.02073 4.214,0.02073 4.787,0 c 1.149,0 2.083,0.931 2.083,2.082 z"
     id="path3799"
     inkscape:export-filename="/home/kgillespie/air_projects/air_everywhere/air_element_libraries/lis3dh/element_code/zRawAcceleration.designer.png"
     inkscape:export-xdpi="187.09"
     inkscape:export-ydpi="187.09" /><g
     id="g3813"
     transform="translate(0.07988437,-0.51923499)"
     inkscape:export-filename="/home/kgillespie/air_projects/air_everywhere/air_element_libraries/lis3dh/element_code/zRawAcceleration.designer.png"
     inkscape:export-xdpi="187.09"
     inkscape:export-ydpi="187.09"><path
       transform="matrix(1.5521245,0,0,1.5521245,-25.148495,35.627591)"
       d="m 46.995404,-62.792023 c 0,2.277288 -1.846107,4.123395 -4.123395,4.123395 -2.277288,0 -4.123395,-1.846107 -4.123395,-4.123395 0,-2.277288 1.846107,-4.123395 4.123395,-4.123395 2.277288,0 4.123395,1.846107 4.123395,4.123395 z"
       sodipodi:ry="4.123395"
       sodipodi:rx="4.123395"
       sodipodi:cy="-62.792023"
       sodipodi:cx="42.872009"
       id="path3801"
       style="fill:#ffffff;fill-opacity:1;stroke:none"
       sodipodi:type="arc" /><path
       sodipodi:type="arc"
       style="fill:#009344;fill-opacity:1;stroke:none"
       id="path3805"
       sodipodi:cx="42.872009"
       sodipodi:cy="-62.792023"
       sodipodi:rx="4.123395"
       sodipodi:ry="4.123395"
       d="m 46.995404,-62.792023 c 0,2.277288 -1.846107,4.123395 -4.123395,4.123395 -2.277288,0 -4.123395,-1.846107 -4.123395,-4.123395 0,-2.277288 1.846107,-4.123395 4.123395,-4.123395 2.277288,0 4.123395,1.846107 4.123395,4.123395 z"
       transform="matrix(0.61254429,0,0,0.61254429,15.133196,-23.370551)" /><text
       sodipodi:linespacing="125%"
       id="text3807"
       y="-57.661243"
       x="43.369461"
       style="font-size:4.35908699px;font-style:normal;font-weight:normal;line-height:125%;letter-spacing:0px;word-spacing:0px;fill:#009344;fill-opacity:1;stroke:none;font-family:Sans"
       xml:space="preserve"><tspan
         y="-57.661243"
         x="43.369461"
         id="tspan3809"
         sodipodi:role="line">z</tspan></text>
<path
       transform="matrix(0.39679087,0,0,0.39679087,24.382979,-36.918145)"
       d="m 46.995404,-62.792023 c 0,2.277288 -1.846107,4.123395 -4.123395,4.123395 -2.277288,0 -4.123395,-1.846107 -4.123395,-4.123395 0,-2.277288 1.846107,-4.123395 4.123395,-4.123395 2.277288,0 4.123395,1.846107 4.123395,4.123395 z"
       sodipodi:ry="4.123395"
       sodipodi:rx="4.123395"
       sodipodi:cy="-62.792023"
       sodipodi:cx="42.872009"
       id="path3811"
       style="fill:#ffffff;fill-opacity:1;stroke:none"
       sodipodi:type="arc" /></g><text
     xml:space="preserve"
     style="font-size:6.13810682px;font-style:normal;font-variant:normal;font-weight:bold;font-stretch:normal;line-height:125%;letter-spacing:0px;word-spacing:0px;fill:#009344;fill-opacity:1;stroke:none;font-family:Futura-CondensedMedium;-inkscape-font-specification:Futura-CondensedMedium Bold"
     x="6.9999514"
     y="-48.156349"
     id="text3040"
     sodipodi:linespacing="125%"
     transform="scale(0.9873802,1.0127811)"
     inkscape:export-filename="/home/kgillespie/air_projects/air_everywhere/air_element_libraries/lis3dh/element_code/zRawAcceleration.designer.png"
     inkscape:export-xdpi="187.09"
     inkscape:export-ydpi="187.09"><tspan
       sodipodi:role="line"
       id="tspan3042"
       x="6.9999514"
       y="-48.156349">Z RAW ACCELERATION</tspan></text>
<text
     transform="scale(0.9873802,1.0127811)"
     sodipodi:linespacing="125%"
     id="text3011"
     y="-12.663245"
     x="7.0398488"
     style="font-size:6.13810682px;font-style:normal;font-variant:normal;font-weight:bold;font-stretch:normal;line-height:125%;letter-spacing:0px;word-spacing:0px;fill:#009344;fill-opacity:1;stroke:none;font-family:Futura-CondensedMedium;-inkscape-font-specification:Futura-CondensedMedium Bold"
     xml:space="preserve"><tspan
       y="-12.663245"
       x="7.0398488"
       id="tspan3013"
       sodipodi:role="line">Y RAW ACCELERATION</tspan></text>
<text
     xml:space="preserve"
     style="font-size:6.13810682px;font-style:normal;font-variant:normal;font-weight:bold;font-stretch:normal;line-height:125%;letter-spacing:0px;word-spacing:0px;fill:#009344;fill-opacity:1;stroke:none;font-family:Futura-CondensedMedium;-inkscape-font-specification:Futura-CondensedMedium Bold"
     x="6.8644328"
     y="27.877768"
     id="text3015"
     sodipodi:linespacing="125%"
     transform="scale(0.9873802,1.0127811)"><tspan
       sodipodi:role="line"
       id="tspan3017"
       x="6.8644328"
       y="27.877768">X RAW ACCELERATION</tspan></text>
</svg>